#tb 0: 1/44100
#media_type 0: audio
#codec_id 0: pcm_s16le
#sample_rate 0: 44100
#channel_layout_name 0: 5 channels
0,          0,          0,     4096,    40960, 0xe98bb1c3
0,       4096,       4096,     4096,    40960, 0xeae19b4b
0,       8192,       8192,     4096,    40960, 0xf0bc7e17
0,      12288,      12288,     4096,    40960, 0xf616b68a
0,      16384,      16384,     4096,    40960, 0xf533da47
0,      20480,      20480,     4096,    40960, 0x4b9dacea
0,      24576,      24576,     4096,    40960, 0x07d8a961
0,      28672,      28672,     4096,    40960, 0xb040e7dc
0,      32768,      32768,     4096,    40960, 0xc7a69feb
0,      36864,      36864,     4096,    40960, 0x24d57598
0,      40960,      40960,     4096,    40960, 0xe81799f3
0,      45056,      45056,     4096,    40960, 0xf0867ec7
0,      49152,      49152,     4096,    40960, 0xc36f7679
0,      53248,      53248,     4096,    40960, 0x0bf858aa
0,      57344,      57344,     4096,    40960, 0xe7605aa2
0,      61440,      61440,     4096,    40960, 0x7ad56faf
0,      65536,      65536,     4096,    40960, 0xfa465372
0,      69632,      69632,     4096,    40960, 0xc8309de9
0,      73728,      73728,     4096,    40960, 0x0fe66551
0,      77824,      77824,     4096,    40960, 0x15a51361
